{"glyphs":{":":{"x_min":0,"x_max":182,"ha":182,"o":""},"$":{"x_min":0,"x_max":404,"ha":404,"o":"m 230 -5 q 226 -6 226 -10 l 227 -85 q 227 -95 217 -95 l 205 -95 q 195 -95 195 -85 l 195 -12 q 195 -8 191 -8 q 126 -4 86 44 q 47 91 47 166 l 47 185 q 47 195 57 195 l 75 195 q 85 195 85 185 l 85 167 q 85 104 117 65 q 149 26 200 26 q 250 26 284 64 q 317 101 317 162 q 317 202 302 230 q 286 259 262 280 q 238 301 187 339 q 136 377 108 403 q 81 429 64 464 q 47 499 47 547 q 47 620 86 662 q 125 705 187 708 q 191 708 191 712 l 190 790 q 190 800 200 800 l 212 800 q 222 800 222 790 l 222 710 q 222 706 226 705 q 283 695 316 648 q 350 602 350 532 l 350 507 q 350 497 340 497 l 321 497 q 311 497 311 507 l 311 532 q 311 596 279 635 q 247 674 195 674 q 147 674 116 640 q 85 606 85 545 q 85 509 98 482 q 111 456 136 433 q 160 410 209 374 q 268 330 296 304 q 325 277 340 246 q 356 214 356 169 q 356 98 322 52 q 287 5 230 -5 z"},"?":{"x_min":0,"x_max":338,"ha":338,"o":"m 135 200 l 135 270 q 135 311 150 336 q 165 362 196 395 q 219 420 232 438 q 245 455 254 482 q 264 508 264 543 q 264 602 238 638 q 212 673 170 673 q 126 673 98 638 q 71 602 71 544 l 71 507 q 71 497 61 497 l 42 498 q 32 498 32 508 l 32 544 q 32 618 70 664 q 109 709 170 709 q 230 709 266 664 q 303 618 303 542 q 303 479 283 442 q 263 404 227 367 q 200 338 188 318 q 176 298 176 269 l 176 200 q 176 190 166 190 l 145 190 q 135 190 135 200 z m 111 50 q 111 70 124 82 q 137 95 156 95 q 176 95 189 82 q 202 69 202 50 q 202 30 189 17 q 176 4 156 4 q 136 4 124 17 q 111 30 111 50 z"},"<":{"x_min":0,"x_max":443,"ha":443,"o":"m 395 68 l 43 247 q 36 250 36 259 l 36 281 q 36 290 43 293 l 395 472 q 397 473 400 473 q 407 473 407 465 l 407 446 q 407 437 400 434 l 77 273 q 75 272 75 270 q 75 268 77 267 l 400 106 q 407 103 407 94 l 407 75 q 407 70 404 68 q 400 66 395 68 z"},"'":{"x_min":0,"x_max":95,"ha":95,"o":"m 31 512 l 26 687 q 26 697 36 697 l 58 697 q 68 697 68 687 l 63 512 q 63 502 53 502 l 41 502 q 31 502 31 512 z"},"=":{"x_min":0,"x_max":443,"ha":443,"o":""},"a":{"x_min":0,"x_max":397,"ha":397,"o":"m 338 344 l 338 10 q 338 0 328 0 l 309 0 q 299 0 299 10 l 299 51 q 299 54 298 54 q 296 54 294 52 q 275 22 244 7 q 212 -8 174 -8 q 122 -8 85 22 q 48 53 48 129 q 48 210 92 250 q 136 289 210 289 l 295 289 q 299 289 299 293 l 299 344 q 299 404 273 440 q 247 475 199 475 q 161 475 132 452 q 104 428 100 390 q 100 380 90 380 l 69 381 q 65 381 62 384 q 59 387 60 392 q 66 445 106 478 q 145 510 200 510 q 265 510 302 465 q 338 420 338 344 z m 299 146 l 299 251 q 299 255 295 255 l 211 255 q 155 255 122 224 q 88 193 88 132 q 88 79 114 53 q 139 27 181 27 q 230 27 264 58 q 299 88 299 146 z"},"L":{"x_min":0,"x_max":382,"ha":382,"o":"m 84 10 l 84 690 q 84 700 94 700 l 113 700 q 123 700 123 690 l 123 39 q 123 35 127 35 l 364 35 q 374 35 374 25 l 374 10 q 374 0 364 0 l 94 0 q 84 0 84 10 z"},"3":{"x_min":0,"x_max":396,"ha":396,"o":"m 333 207 q 333 148 322 104 q 291 -8 188 -8 q 133 -8 98 22 q 64 53 52 111 q 45 147 43 195 q 43 205 53 205 l 72 205 q 82 205 82 195 q 83 156 90 121 q 100 75 125 51 q 150 27 188 27 q 224 27 248 48 q 273 70 284 111 q 295 153 295 210 q 295 283 279 328 q 254 400 188 400 q 179 400 169 398 q 167 397 164 397 q 159 397 155 401 l 146 410 q 140 416 144 424 l 282 660 q 283 662 282 664 q 281 665 279 665 l 55 665 q 45 665 45 675 l 45 690 q 45 700 55 700 l 321 700 q 331 700 331 690 l 331 672 q 331 665 328 659 l 197 433 q 196 431 196 430 q 197 428 199 428 q 239 428 268 404 q 298 381 313 339 q 333 290 333 207 z"},";":{"x_min":0,"x_max":175,"ha":175,"o":"m 46 409 q 46 428 58 442 q 71 456 88 456 q 104 456 116 442 q 129 428 129 409 q 129 390 117 376 q 105 362 88 362 q 70 362 58 376 q 46 389 46 409 z m 48 -54 l 70 139 q 71 148 80 148 l 98 148 q 102 148 105 145 q 108 142 107 137 l 79 -56 q 78 -65 69 -65 l 58 -65 q 53 -65 50 -62 q 47 -58 48 -54 z"},"J":{"x_min":0,"x_max":413,"ha":413,"o":"m 26 153 l 26 242 q 26 252 36 252 l 55 252 q 65 252 65 242 l 65 151 q 65 95 96 61 q 127 27 177 27 q 228 27 259 61 q 290 95 290 151 l 290 690 q 290 700 300 700 l 319 700 q 329 700 329 690 l 329 153 q 329 80 287 36 q 245 -8 177 -8 q 109 -8 68 36 q 26 80 26 153 z"},"V":{"x_min":0,"x_max":417,"ha":417,"o":"m 187 9 l 41 689 l 41 691 q 41 700 50 700 l 71 700 q 81 700 82 691 l 207 81 q 208 78 209 78 q 210 78 211 81 l 336 691 q 338 700 347 700 l 367 700 q 378 700 376 689 l 231 9 q 230 0 220 0 l 198 0 q 189 0 187 9 z"},"\"":{"x_min":0,"x_max":184,"ha":184,"o":"m 31 506 l 26 683 q 26 693 36 693 l 57 693 q 67 693 67 683 l 62 506 q 62 496 52 496 l 41 496 q 31 496 31 506 z m 119 506 l 116 683 q 116 693 126 693 l 146 693 q 156 693 156 683 l 151 506 q 151 496 141 496 l 129 496 q 119 496 119 506 z"},"7":{"x_min":0,"x_max":347,"ha":347,"o":"m 111 11 l 285 661 q 286 662 284 664 q 283 665 281 665 l 66 665 q 62 665 62 661 l 62 618 q 62 608 52 608 l 38 608 q 28 608 28 618 l 28 690 q 28 700 38 700 l 318 700 q 328 700 328 690 l 328 671 q 328 669 326 659 l 153 9 q 151 0 142 0 l 120 0 q 115 0 112 3 q 110 6 111 11 z"},"S":{"x_min":0,"x_max":404,"ha":404,"o":"m 47 166 l 47 185 q 47 195 57 195 l 75 195 q 85 195 85 185 l 85 167 q 85 104 117 65 q 149 26 200 26 q 250 26 284 64 q 317 101 317 162 q 317 202 302 230 q 286 259 262 280 q 238 301 187 339 q 136 377 108 403 q 81 429 64 464 q 47 499 47 547 q 47 622 88 665 q 129 708 195 708 q 265 708 308 660 q 350 611 350 532 l 350 507 q 350 497 340 497 l 321 497 q 311 497 311 507 l 311 532 q 311 596 279 635 q 247 674 195 674 q 147 674 116 640 q 85 606 85 545 q 85 509 98 482 q 111 456 136 433 q 160 410 209 374 q 268 330 296 304 q 325 277 340 246 q 356 214 356 169 q 356 89 312 40 q 269 -8 201 -8 q 132 -8 90 40 q 47 88 47 166 z"},"}":{"x_min":0,"x_max":240,"ha":240,"o":"m 35 -109 q 25 -109 25 -99 l 25 -84 q 25 -74 35 -74 l 63 -74 q 93 -74 107 -56 q 121 -37 121 5 l 121 220 q 121 264 132 290 q 142 315 165 328 q 170 331 165 333 q 142 344 132 370 q 121 395 121 440 l 121 648 q 121 690 107 708 q 93 727 63 727 l 35 727 q 25 727 25 737 l 25 752 q 25 762 35 762 l 71 762 q 118 762 139 736 q 160 711 160 653 l 160 438 q 160 396 171 374 q 182 353 207 348 q 216 347 216 338 l 216 322 q 216 314 207 312 q 182 307 171 286 q 160 264 160 222 l 160 0 q 160 -58 139 -84 q 118 -109 71 -109 z"},"Z":{"x_min":0,"x_max":387,"ha":387,"o":"m 39 10 l 39 29 q 39 36 41 41 l 298 660 q 299 662 298 664 q 297 665 295 665 l 49 665 q 39 665 39 675 l 39 690 q 39 700 49 700 l 332 700 q 342 700 342 690 l 342 671 q 342 664 340 659 l 83 40 q 82 38 83 36 q 84 35 86 35 l 332 35 q 342 35 342 25 l 342 10 q 342 0 332 0 l 49 0 q 39 0 39 10 z"},"x":{"x_min":0,"x_max":346,"ha":346,"o":"m 25 12 l 151 248 q 153 251 151 254 l 25 490 q 24 492 24 495 q 24 502 32 502 l 55 502 q 64 502 67 495 l 171 289 q 172 287 174 287 q 176 287 177 289 l 281 495 q 284 502 293 502 l 314 502 q 319 502 321 498 q 323 495 321 490 l 196 254 q 195 251 196 248 l 321 12 q 322 10 322 7 q 322 0 314 0 l 293 0 q 284 0 281 7 l 177 214 q 176 216 174 216 q 172 216 171 214 l 67 7 q 64 0 55 0 l 32 0 q 27 0 25 4 q 23 7 25 12 z"},")":{"x_min":0,"x_max":181,"ha":181,"o":"m 107 758 q 142 684 164 569 q 185 454 185 333 q 185 208 163 90 q 141 -28 105 -103 q 101 -110 93 -110 l 76 -110 q 71 -110 68 -106 q 66 -103 68 -99 q 100 -22 120 94 q 140 211 140 332 q 140 450 120 564 q 100 679 68 754 q 67 755 67 758 q 67 761 70 763 q 72 765 76 765 l 96 765 q 104 765 107 758 z"},"&":{"x_min":0,"x_max":515,"ha":515,"o":"m 461 7 q 461 0 452 0 l 433 0 q 425 0 421 7 q 384 61 369 85 q 366 88 363 85 q 324 35 286 14 q 249 -8 201 -8 q 130 -8 88 34 q 47 75 47 150 q 47 219 79 268 q 111 317 172 373 q 175 374 173 378 q 135 436 118 467 q 101 498 96 519 q 90 540 90 566 q 90 631 125 670 q 160 708 217 708 q 273 708 309 670 q 345 631 345 569 q 345 527 328 492 q 312 458 288 431 q 264 404 225 368 q 222 367 224 363 l 295 256 l 363 155 q 366 152 369 155 q 388 186 401 209 l 419 239 q 424 249 433 243 l 447 234 q 455 229 450 220 q 413 156 389 122 q 388 119 389 116 l 459 12 z m 129 565 q 129 533 142 502 q 154 472 198 402 q 201 398 204 401 q 254 448 280 485 q 306 522 306 569 q 306 615 281 644 q 256 672 217 672 q 178 672 154 643 q 129 614 129 565 z m 343 118 q 345 121 343 124 l 291 201 l 199 338 q 197 342 194 339 q 142 291 114 248 q 86 204 86 149 q 86 92 118 60 q 149 27 205 27 q 245 28 276 49 q 308 70 343 118 z"},"_":{"x_min":0,"x_max":356,"ha":356,"o":"m 26 10 l 26 24 q 26 34 36 34 l 320 34 q 330 34 330 24 l 330 10 q 330 0 320 0 l 36 0 q 26 0 26 10 z"},"v":{"x_min":0,"x_max":353,"ha":353,"o":"m 154 9 l 29 491 l 28 494 q 28 502 38 502 l 60 502 q 70 502 71 493 l 175 69 q 176 66 177 66 q 178 66 179 69 l 281 493 q 283 502 292 502 l 316 502 q 327 502 324 491 l 200 9 q 199 0 189 0 l 165 0 q 156 0 154 9 z"},"O":{"x_min":0,"x_max":448,"ha":448,"o":"m 65 156 l 65 543 q 65 617 109 662 q 153 708 223 708 q 294 708 338 662 q 383 616 383 543 l 383 156 q 383 83 338 38 q 294 -8 223 -8 q 152 -8 108 38 q 65 83 65 156 z m 344 154 l 344 545 q 344 602 310 638 q 277 673 223 673 q 170 673 137 638 q 104 602 104 545 l 104 154 q 104 98 137 62 q 170 27 223 27 q 277 27 310 62 q 344 98 344 154 z"},"(":{"x_min":0,"x_max":181,"ha":181,"o":"m 74 -103 q 39 -29 18 86 q -4 201 -4 322 q -4 447 18 565 q 39 683 75 758 q 79 765 87 765 l 104 765 q 109 765 112 762 q 114 758 112 754 q 81 677 61 560 q 41 443 41 324 q 41 205 60 90 q 80 -24 112 -99 q 113 -100 113 -103 q 113 -106 110 -108 q 108 -110 104 -110 l 85 -110 q 77 -110 74 -103 z"},"C":{"x_min":0,"x_max":437,"ha":437,"o":"m 65 154 l 65 547 q 65 620 108 664 q 151 708 221 708 q 292 708 336 664 q 379 620 379 547 l 379 527 q 379 517 369 517 l 349 516 q 339 516 339 526 l 339 549 q 339 605 306 639 q 274 673 221 673 q 168 673 136 639 q 104 605 104 549 l 104 151 q 104 95 136 61 q 169 27 221 27 q 274 27 306 61 q 339 95 339 151 l 339 173 q 339 183 349 183 l 369 182 q 379 182 379 172 l 379 154 q 379 81 336 36 q 292 -8 221 -8 q 151 -8 108 36 q 65 81 65 154 z"},"W":{"x_min":0,"x_max":593,"ha":593,"o":"m 163 9 l 33 689 l 33 691 q 33 700 42 700 l 62 700 q 72 700 73 691 l 183 93 q 184 91 185 91 q 186 91 187 93 l 280 691 q 282 700 290 700 l 309 700 q 318 700 319 691 l 415 93 q 416 91 417 91 q 418 91 419 93 l 519 691 q 521 700 530 700 l 551 700 q 556 700 558 697 q 561 694 560 689 l 437 9 q 436 0 426 0 l 406 0 q 398 0 396 9 l 302 605 q 301 607 300 607 q 299 607 298 605 l 203 9 q 202 0 193 0 l 174 0 q 165 0 163 9 z"},"A":{"x_min":0,"x_max":377,"ha":377,"o":"m 325 9 l 296 145 q 296 147 294 148 q 293 149 291 149 l 85 149 q 83 149 82 148 q 80 147 80 145 l 51 9 q 50 0 40 0 l 21 0 q 16 0 14 3 q 11 6 12 11 l 164 691 q 166 700 175 700 l 200 700 q 210 700 211 691 l 364 11 l 364 9 q 364 0 355 0 l 336 0 q 327 0 325 9 z m 92 182 l 284 182 q 286 182 287 184 q 288 185 287 186 l 190 633 q 189 636 188 636 q 187 636 186 633 l 89 186 q 88 185 89 184 q 90 182 92 182 z"},"f":{"x_min":0,"x_max":267,"ha":267,"o":"m 129 547 l 129 506 q 129 502 133 502 l 218 502 q 228 502 228 492 l 228 480 q 228 470 218 470 l 133 470 q 129 470 129 466 l 129 10 q 129 0 119 0 l 100 0 q 90 0 90 10 l 90 466 q 90 470 86 470 l 42 470 q 32 470 32 480 l 32 492 q 32 502 42 502 l 86 502 q 90 502 90 506 l 90 547 q 90 629 116 669 q 142 709 206 709 l 221 709 q 231 709 231 699 l 231 684 q 231 674 221 674 l 207 674 q 162 674 146 644 q 129 613 129 547 z"},"Q":{"x_min":0,"x_max":435,"ha":435,"o":"m 370 542 l 370 158 q 370 90 336 46 q 301 1 242 -7 q 238 -7 238 -11 l 238 -113 q 238 -123 228 -123 l 208 -123 q 198 -123 198 -113 l 198 -11 q 198 -7 194 -7 q 136 1 100 46 q 65 91 65 158 l 65 542 q 65 616 108 662 q 150 708 218 708 q 286 708 328 662 q 370 616 370 542 z m 331 545 q 331 602 300 638 q 268 673 218 673 q 168 673 136 638 q 104 602 104 545 l 104 155 q 104 98 136 62 q 168 27 218 27 q 268 27 300 62 q 331 98 331 155 z"},"w":{"x_min":0,"x_max":527,"ha":527,"o":"m 133 9 l 28 491 l 28 493 q 28 502 37 502 l 55 502 q 65 502 66 493 l 152 65 q 153 62 154 62 q 155 62 156 65 l 242 493 q 244 502 253 502 l 271 502 q 281 502 282 493 l 370 65 q 371 62 372 62 q 373 62 374 65 l 461 493 q 463 502 472 502 l 490 502 q 495 502 498 499 q 500 496 499 491 l 393 9 q 392 0 382 0 l 362 0 q 353 0 351 9 l 264 423 q 263 426 262 426 q 261 426 260 423 l 175 9 q 174 0 164 0 l 144 0 q 135 0 133 9 z"},"-":{"x_min":0,"x_max":305,"ha":305,"o":"m 36 310 l 36 325 q 36 335 46 335 l 259 335 q 269 335 269 325 l 269 310 q 269 300 259 300 l 46 300 q 36 300 36 310 z"},"E":{"x_min":0,"x_max":425,"ha":425,"o":"m 368 665 l 127 665 q 123 665 123 661 l 123 372 q 123 368 127 368 l 285 368 q 295 368 295 358 l 295 343 q 295 333 285 333 l 127 333 q 123 333 123 329 l 123 39 q 123 35 127 35 l 368 35 q 378 35 378 25 l 378 10 q 378 0 368 0 l 94 0 q 84 0 84 10 l 84 690 q 84 700 94 700 l 368 700 q 378 700 378 690 l 378 675 q 378 665 368 665 z"},"s":{"x_min":0,"x_max":357,"ha":357,"o":"m 50 119 l 50 124 q 50 134 60 134 l 78 134 q 88 134 88 124 l 88 119 q 88 81 115 55 q 142 29 187 29 q 231 29 257 56 q 283 82 283 125 q 283 156 268 176 q 254 197 232 210 q 211 222 174 237 q 136 253 111 268 q 86 283 69 309 q 52 335 52 376 q 52 436 88 471 q 125 506 185 506 q 246 506 282 470 q 319 434 319 377 l 319 374 q 319 364 309 364 l 292 364 q 282 364 282 374 l 282 378 q 282 418 255 446 q 228 473 185 473 q 142 473 116 446 q 90 419 90 377 q 90 348 104 328 q 117 309 137 297 q 157 285 192 270 q 234 253 260 238 q 285 223 304 196 q 322 168 322 126 q 322 67 286 32 q 249 -4 187 -4 q 125 -4 88 30 q 50 65 50 119 z"},">":{"x_min":0,"x_max":443,"ha":443,"o":"m 43 67 q 36 67 36 75 l 36 94 q 36 103 43 106 l 366 267 q 368 268 368 270 q 368 272 366 273 l 43 434 q 36 437 36 446 l 36 465 q 36 470 40 472 q 43 474 48 472 l 400 293 q 407 290 407 281 l 407 259 q 407 250 400 247 l 48 68 q 46 67 43 67 z"},"l":{"x_min":0,"x_max":169,"ha":169,"o":"m 65 10 l 65 690 q 65 700 75 700 l 94 700 q 104 700 104 690 l 104 10 q 104 0 94 0 l 75 0 q 65 0 65 10 z"},"8":{"x_min":0,"x_max":414,"ha":414,"o":"m 275 372 q 309 354 328 315 q 353 265 353 192 q 353 142 339 95 q 322 45 288 18 q 254 -8 206 -8 q 159 -8 126 18 q 92 45 75 95 q 62 141 62 193 q 62 258 81 305 q 101 352 139 371 q 144 374 139 376 q 106 393 86 428 q 62 470 62 535 q 62 601 85 640 q 103 673 134 691 q 165 709 206 709 q 289 709 327 643 q 353 600 353 534 q 353 470 329 431 q 311 397 275 378 q 270 375 275 372 z m 206 392 q 237 392 260 406 q 283 421 296 448 q 314 483 314 533 q 314 590 292 625 q 264 673 206 673 q 147 673 119 621 q 100 585 100 532 q 100 480 120 443 q 148 392 206 392 z m 313 193 q 313 256 295 296 q 269 358 206 358 q 142 358 116 290 q 100 250 100 193 q 100 144 112 108 q 123 69 148 48 q 172 27 206 27 q 242 27 267 49 q 292 71 303 112 q 313 150 313 193 z"},"\\":{"x_min":0,"x_max":297,"ha":297,"o":"m 269 7 q 269 0 260 0 l 241 0 q 232 0 230 9 l 68 689 l 67 693 q 67 700 76 700 l 95 700 q 104 700 106 691 l 268 11 z"},"e":{"x_min":0,"x_max":395,"ha":395,"o":"m 333 240 l 101 240 q 97 240 97 236 l 97 140 q 97 90 126 58 q 155 27 200 27 q 238 27 265 49 q 292 71 301 108 q 304 117 312 117 l 330 116 q 335 116 338 113 q 340 110 339 105 q 330 54 292 23 q 255 -8 200 -8 q 137 -8 98 32 q 58 73 58 138 l 58 363 q 58 428 98 469 q 137 510 200 510 q 264 510 304 469 q 343 428 343 363 l 343 250 q 343 240 333 240 z m 97 362 l 97 277 q 97 273 101 273 l 300 273 q 304 273 304 277 l 304 362 q 304 412 275 444 q 246 475 200 475 q 155 475 126 444 q 97 412 97 362 z"},"b":{"x_min":0,"x_max":412,"ha":412,"o":"m 354 363 l 354 138 q 354 74 316 33 q 279 -8 218 -8 q 186 -8 159 6 q 132 20 115 46 q 113 48 112 48 q 110 47 110 44 l 110 10 q 110 0 100 0 l 81 0 q 71 0 71 10 l 71 690 q 71 700 81 700 l 100 700 q 110 700 110 690 l 110 458 q 110 451 115 456 q 132 482 159 496 q 186 510 218 510 q 279 510 316 470 q 354 429 354 363 z m 211 475 q 167 475 138 444 q 110 412 110 362 l 110 140 q 110 90 138 58 q 167 27 211 27 q 257 27 286 58 q 315 90 315 140 l 315 362 q 315 412 286 444 q 257 475 211 475 z"},"%":{"x_min":0,"x_max":788,"ha":788,"o":"m 84 575 q 84 612 102 643 q 120 674 150 692 q 181 710 217 710 q 253 710 283 692 q 313 673 331 642 q 349 611 349 575 q 349 538 332 507 q 314 476 284 458 q 253 439 217 439 q 181 439 150 458 q 120 476 102 507 q 84 538 84 575 z m 194 12 l 561 693 q 564 700 573 700 l 585 700 q 591 700 594 696 q 596 693 593 688 l 226 7 q 223 0 214 0 l 202 0 q 196 0 194 4 q 191 7 194 12 z m 319 575 q 319 619 290 650 q 260 681 217 681 q 174 681 144 650 q 114 619 114 575 q 114 530 144 499 q 174 468 217 468 q 260 468 290 500 q 319 531 319 575 z m 439 126 q 439 163 457 194 q 475 225 506 243 q 536 261 572 261 q 608 261 638 242 q 668 224 686 193 q 704 162 704 126 q 704 89 686 58 q 669 27 638 8 q 608 -10 572 -10 q 536 -10 506 8 q 475 27 457 58 q 439 89 439 126 z m 674 126 q 674 170 644 201 q 615 232 572 232 q 529 232 499 201 q 469 170 469 126 q 469 81 499 50 q 529 19 572 19 q 615 19 644 50 q 674 82 674 126 z"},"m":{"x_min":0,"x_max":636,"ha":636,"o":"m 571 347 l 571 10 q 571 0 561 0 l 542 0 q 532 0 532 10 l 532 343 q 532 403 506 438 q 480 474 438 474 q 393 474 366 440 q 340 405 340 345 l 340 10 q 340 0 330 0 l 312 0 q 302 0 302 10 l 302 343 q 302 403 276 438 q 250 474 209 474 q 164 474 137 440 q 110 405 110 345 l 110 10 q 110 0 100 0 l 81 0 q 71 0 71 10 l 71 492 q 71 502 81 502 l 100 502 q 110 502 110 492 l 110 451 q 110 448 112 448 q 113 448 115 450 q 133 479 160 494 q 187 509 219 509 q 257 509 286 488 q 314 467 328 428 q 330 422 333 429 q 348 468 379 488 q 410 509 449 509 q 504 509 538 465 q 571 421 571 347 z"},"#":{"x_min":0,"x_max":577,"ha":577,"o":"m 502 441 l 439 441 q 434 441 434 437 l 407 250 q 407 246 410 246 l 470 246 q 480 246 480 236 l 480 221 q 480 211 470 211 l 405 211 q 400 211 400 207 l 372 21 q 371 12 362 12 l 343 13 q 338 13 336 16 q 333 19 334 23 l 360 207 q 360 211 357 211 l 183 211 q 178 211 178 207 l 151 21 q 150 12 141 12 l 122 13 q 117 13 114 16 q 112 19 113 23 l 139 207 q 139 211 136 211 l 75 211 q 65 211 65 221 l 65 236 q 65 246 75 246 l 141 246 q 146 246 146 250 l 173 437 q 173 441 170 441 l 106 441 q 96 441 96 451 l 96 466 q 96 476 106 476 l 175 476 q 180 476 180 480 l 208 667 q 209 676 218 676 l 237 675 q 242 675 244 672 q 247 669 246 665 l 220 480 q 220 476 223 476 l 396 476 q 401 476 401 480 l 429 667 q 430 676 439 676 l 459 675 q 463 675 466 672 q 469 669 468 664 l 441 480 q 441 476 444 476 l 502 476 q 512 476 512 466 l 512 451 q 512 441 502 441 z m 367 250 l 394 437 q 394 441 391 441 l 217 441 q 212 441 212 437 l 186 250 q 186 246 189 246 l 362 246 q 367 246 367 250 z"},",":{"x_min":0,"x_max":162,"ha":162,"o":"m 42 -60 l 78 145 q 80 154 89 154 l 105 154 q 110 154 112 151 q 115 148 114 143 l 73 -62 q 72 -71 62 -71 l 51 -71 q 46 -71 44 -68 q 41 -65 42 -60 z"},"n":{"x_min":0,"x_max":414,"ha":414,"o":"m 349 356 l 349 10 q 349 0 339 0 l 320 0 q 310 0 310 10 l 310 352 q 310 410 284 442 q 258 474 212 474 q 165 474 138 440 q 110 405 110 345 l 110 10 q 110 0 100 0 l 81 0 q 71 0 71 10 l 71 492 q 71 502 81 502 l 100 502 q 110 502 110 492 l 110 448 q 110 445 112 445 q 113 445 115 447 q 149 509 223 509 q 283 509 316 468 q 349 428 349 356 z"},"h":{"x_min":0,"x_max":414,"ha":414,"o":"m 349 356 l 349 10 q 349 0 339 0 l 320 0 q 310 0 310 10 l 310 352 q 310 410 284 442 q 258 474 212 474 q 165 474 138 440 q 110 405 110 345 l 110 10 q 110 0 100 0 l 81 0 q 71 0 71 10 l 71 690 q 71 700 81 700 l 100 700 q 110 700 110 690 l 110 448 q 110 445 112 445 q 113 445 115 447 q 149 509 223 509 q 283 509 316 468 q 349 428 349 356 z"},"z":{"x_min":0,"x_max":355,"ha":355,"o":"m 40 10 l 40 29 q 40 35 43 42 l 269 461 q 271 466 267 466 l 53 466 q 43 466 43 476 l 43 492 q 43 502 53 502 l 307 502 q 317 502 317 492 l 317 473 q 317 468 314 460 l 88 41 q 86 36 90 36 l 306 36 q 316 36 316 26 l 316 10 q 316 0 306 0 l 50 0 q 40 0 40 10 z"},"B":{"x_min":0,"x_max":439,"ha":439,"o":"m 309 360 q 352 339 376 295 q 399 251 400 188 q 400 99 354 50 q 309 0 230 0 l 94 0 q 84 0 84 10 l 84 690 q 84 700 94 700 l 226 700 q 307 700 352 654 q 397 607 397 521 q 397 463 374 424 q 352 384 309 365 q 304 363 309 360 z m 123 661 l 123 383 q 123 379 127 379 l 227 379 q 289 379 324 416 q 359 453 359 519 q 359 588 324 626 q 289 665 227 665 l 127 665 q 123 665 123 661 z m 361 190 q 361 263 326 304 q 290 346 228 346 l 127 346 q 123 346 123 342 l 123 40 q 123 36 127 36 l 228 36 q 290 36 326 76 q 361 117 361 190 z"},"K":{"x_min":0,"x_max":434,"ha":434,"o":"m 84 10 l 84 690 q 84 700 94 700 l 113 700 q 123 700 123 690 l 123 333 q 123 330 125 330 q 127 329 128 332 l 350 693 q 355 700 362 700 l 385 700 q 391 700 393 696 q 395 693 392 688 l 233 425 q 230 422 232 419 l 410 12 l 411 8 q 411 0 402 0 l 378 0 q 370 0 367 8 l 206 383 q 205 387 201 383 l 125 268 q 123 266 123 263 l 123 10 q 123 0 113 0 l 94 0 q 84 0 84 10 z"},"R":{"x_min":0,"x_max":431,"ha":431,"o":"m 356 8 l 240 332 q 239 335 236 335 l 127 335 q 123 335 123 331 l 123 10 q 123 0 113 0 l 94 0 q 84 0 84 10 l 84 690 q 84 700 94 700 l 242 700 q 310 700 352 649 q 393 598 393 516 q 393 447 362 400 q 332 353 280 340 q 276 338 277 335 l 394 11 l 395 7 q 395 0 386 0 l 368 0 q 359 0 356 8 z m 123 661 l 123 372 q 123 368 127 368 l 238 368 q 290 368 322 408 q 354 449 354 515 q 354 583 322 624 q 290 665 238 665 l 127 665 q 123 665 123 661 z"},"T":{"x_min":0,"x_max":402,"ha":402,"o":"m 364 690 l 364 675 q 364 665 354 665 l 220 665 q 216 665 216 661 l 216 10 q 216 0 206 0 l 187 0 q 177 0 177 10 l 177 661 q 177 665 173 665 l 48 665 q 38 665 38 675 l 38 690 q 38 700 48 700 l 354 700 q 364 700 364 690 z"},"P":{"x_min":0,"x_max":432,"ha":432,"o":"m 393 515 q 393 433 352 382 q 311 332 243 332 l 127 332 q 123 332 123 328 l 123 10 q 123 0 113 0 l 94 0 q 84 0 84 10 l 84 692 q 84 702 94 702 l 242 702 q 310 702 352 650 q 393 599 393 515 z m 354 515 q 354 584 322 625 q 291 666 238 666 l 127 666 q 123 666 123 662 l 123 370 q 123 366 127 366 l 238 366 q 291 366 322 407 q 354 448 354 515 z"},"|":{"x_min":0,"x_max":124,"ha":124,"o":"m 43 -70 l 43 750 q 43 760 53 760 l 72 760 q 82 760 82 750 l 82 -70 q 82 -80 72 -80 l 53 -80 q 43 -80 43 -70 z"},"t":{"x_min":0,"x_max":256,"ha":256,"o":"m 213 470 l 130 470 q 126 470 126 466 l 126 130 q 126 77 144 56 q 162 35 201 35 l 212 35 q 222 35 222 25 l 222 10 q 222 0 212 0 l 195 0 q 142 0 114 26 q 87 52 87 123 l 87 466 q 87 470 83 470 l 42 470 q 32 470 32 480 l 32 492 q 32 502 42 502 l 83 502 q 87 502 87 506 l 87 618 q 87 628 97 628 l 116 628 q 126 628 126 618 l 126 506 q 126 502 130 502 l 213 502 q 223 502 223 492 l 223 480 q 223 470 213 470 z"},"M":{"x_min":0,"x_max":509,"ha":509,"o":"m 394 700 l 415 700 q 425 700 425 690 l 425 10 q 425 0 415 0 l 396 0 q 386 0 386 10 l 386 601 q 386 604 384 604 q 382 604 381 602 l 266 336 q 263 328 255 328 q 247 328 244 336 l 128 600 q 127 602 125 602 q 123 602 123 599 l 123 10 q 123 0 113 0 l 94 0 q 84 0 84 10 l 84 690 q 84 700 94 700 l 114 700 q 122 700 125 692 l 252 404 q 253 402 255 402 q 257 402 258 404 l 383 692 q 386 700 394 700 z"},"g":{"x_min":0,"x_max":401,"ha":401,"o":"m 312 502 l 332 502 q 342 502 342 492 l 342 3 q 342 -201 162 -201 q 147 -201 147 -191 l 147 -175 q 147 -165 160 -165 q 235 -165 268 -122 q 302 -79 302 5 l 302 50 q 302 53 300 53 q 299 53 297 51 q 281 23 254 8 q 227 -6 193 -6 q 132 -6 95 35 q 58 76 58 140 l 58 363 q 58 428 95 469 q 132 510 193 510 q 227 510 254 496 q 281 481 297 453 q 299 451 300 451 q 302 451 302 454 l 302 492 q 302 502 312 502 z m 302 142 l 302 362 q 302 412 274 444 q 246 475 202 475 q 156 475 126 444 q 97 412 97 362 l 97 142 q 97 92 126 60 q 156 29 202 29 q 246 29 274 60 q 302 92 302 142 z"},"j":{"x_min":0,"x_max":192,"ha":192,"o":"m 45 655 q 45 675 58 688 q 71 701 91 701 q 111 701 124 688 q 136 675 136 655 q 136 636 124 623 q 111 610 91 610 q 71 610 58 623 q 45 636 45 655 z m -17 -200 l -17 -185 q -17 -175 -7 -175 q 31 -172 51 -142 q 71 -113 71 -63 l 71 492 q 71 502 81 502 l 100 502 q 110 502 110 492 l 110 -63 q 110 -133 82 -170 q 55 -208 -7 -210 q -17 -210 -17 -200 z"},"i":{"x_min":0,"x_max":203,"ha":203,"o":"m 56 655 q 56 675 68 688 q 81 701 101 701 q 121 701 134 688 q 147 675 147 655 q 147 636 134 623 q 121 610 101 610 q 82 610 69 623 q 56 636 56 655 z m 82 10 l 82 492 q 82 502 92 502 l 111 502 q 121 502 121 492 l 121 10 q 121 0 111 0 l 92 0 q 82 0 82 10 z"},"y":{"x_min":0,"x_max":342,"ha":342,"o":"m 41 -190 l 41 -175 q 41 -165 51 -165 q 81 -164 97 -152 q 113 -139 124 -106 q 135 -74 151 -3 q 152 -1 152 0 q 151 2 151 3 l 22 491 l 21 494 q 21 502 31 502 l 52 502 q 62 502 63 493 l 170 59 q 171 56 172 56 q 173 56 174 59 l 280 493 q 282 502 291 502 l 311 502 q 316 502 318 499 q 321 496 320 491 l 178 -56 q 161 -119 146 -149 q 130 -179 110 -190 q 89 -200 52 -200 l 47 -200 q 45 -200 43 -197 q 41 -194 41 -190 z"},"@":{"x_min":0,"x_max":764,"ha":764,"o":"m 705 324 q 705 308 701 270 q 689 178 645 126 q 601 74 534 74 q 501 74 477 88 q 453 101 441 125 q 439 130 436 125 q 423 100 399 86 q 375 73 348 73 q 307 73 282 98 q 257 123 257 164 l 258 177 l 268 255 l 278 332 q 284 379 313 408 q 342 436 386 436 q 406 436 424 427 q 441 418 452 402 q 453 400 455 400 q 457 401 457 403 l 459 421 q 460 430 469 430 l 481 430 q 486 430 489 426 q 492 423 491 419 l 463 203 q 462 197 462 187 q 462 149 482 126 q 503 104 540 104 q 589 104 623 146 q 657 189 667 268 q 671 304 671 320 q 671 396 640 452 q 608 508 551 538 q 494 568 418 568 q 338 568 268 528 q 198 488 152 416 q 105 343 94 250 q 91 225 91 201 q 91 122 122 62 q 154 3 210 -28 q 266 -60 337 -60 q 389 -60 434 -46 q 479 -32 506 -12 q 508 -10 512 -10 q 517 -10 520 -14 l 526 -21 q 529 -24 529 -28 q 529 -32 524 -35 q 493 -59 442 -75 q 391 -91 331 -91 q 251 -91 189 -56 q 127 -21 92 44 q 58 108 58 194 q 58 212 62 250 q 75 352 126 431 q 178 510 256 554 q 333 598 423 598 q 507 598 571 564 q 635 531 670 469 q 705 407 705 324 z m 428 178 q 432 204 438 254 l 445 310 l 448 334 q 451 366 434 386 q 418 407 389 407 q 359 407 337 386 q 315 364 310 331 q 306 309 300 254 q 298 234 296 226 q 292 191 291 178 q 290 174 290 165 q 290 137 307 120 q 324 102 351 102 q 381 102 402 123 q 423 144 428 178 z"},".":{"x_min":0,"x_max":174,"ha":174,"o":""},"p":{"x_min":0,"x_max":419,"ha":419,"o":"m 360 364 l 360 139 q 360 73 322 32 q 285 -8 224 -8 q 192 -8 166 6 q 139 20 122 46 q 120 48 118 48 q 117 47 117 44 l 117 -188 q 117 -198 107 -198 l 88 -198 q 78 -198 78 -188 l 78 492 q 78 502 88 502 l 107 502 q 117 502 117 492 l 117 458 q 117 455 118 454 q 120 454 122 456 q 139 482 166 496 q 192 510 224 510 q 285 510 322 469 q 360 428 360 364 z m 217 475 q 173 475 145 444 q 117 412 117 362 l 117 140 q 117 90 145 58 q 173 27 217 27 q 263 27 292 58 q 322 90 322 140 l 322 362 q 322 412 293 444 q 264 475 217 475 z"},"X":{"x_min":0,"x_max":415,"ha":415,"o":"m 44 12 l 186 347 q 188 350 186 353 l 44 688 l 43 692 q 43 700 52 700 l 73 700 q 81 700 84 692 l 205 393 q 206 391 208 390 q 210 390 211 393 l 331 692 q 334 700 342 700 l 363 700 q 368 700 370 696 q 373 693 371 688 l 228 352 q 227 349 228 346 l 371 12 l 372 8 q 372 0 363 0 l 342 0 q 334 0 331 8 l 211 306 q 210 308 208 308 q 206 308 205 306 l 84 8 q 81 0 73 0 l 52 0 q 47 0 44 4 q 42 7 44 12 z"},"*":{"x_min":0,"x_max":360,"ha":360,"o":"m 165 403 l 165 538 q 165 540 164 541 q 162 542 160 541 l 49 472 l 44 470 q 39 470 35 476 l 31 484 q 29 488 29 490 q 29 496 34 498 l 146 567 q 148 568 148 570 q 148 572 146 573 l 34 642 q 26 647 31 656 l 35 664 q 40 674 49 668 l 160 599 q 162 598 164 599 q 165 600 165 602 l 165 737 q 165 747 175 747 l 185 747 q 195 747 195 737 l 195 602 q 195 600 196 599 q 198 598 200 599 l 311 668 l 316 670 q 321 670 325 664 l 329 656 q 331 652 331 650 q 331 645 326 642 l 214 573 q 213 572 213 570 q 213 568 214 567 l 326 498 q 334 493 329 484 l 325 476 q 320 466 311 472 l 200 541 q 198 542 196 541 q 195 540 195 538 l 195 403 q 195 393 185 393 l 175 393 q 165 393 165 403 z"},"Y":{"x_min":0,"x_max":401,"ha":401,"o":"m 181 10 l 181 327 q 181 331 180 332 l 43 688 l 42 692 q 42 700 51 700 l 71 700 q 80 700 83 692 l 198 377 q 199 375 201 375 q 203 375 204 377 l 318 692 q 321 700 330 700 l 350 700 q 355 700 358 696 q 360 693 358 688 l 221 332 q 220 331 220 327 l 220 10 q 220 0 210 0 l 191 0 q 181 0 181 10 z"},"c":{"x_min":0,"x_max":388,"ha":388,"o":"m 58 139 l 58 363 q 58 428 98 469 q 137 510 200 510 q 242 510 274 492 q 307 474 325 444 q 343 415 343 381 l 343 377 q 343 367 333 367 l 314 366 q 304 366 304 376 l 304 380 q 304 418 274 446 q 245 475 200 475 q 155 475 126 444 q 97 412 97 362 l 97 140 q 97 91 126 59 q 155 27 200 27 q 245 27 274 56 q 304 84 304 122 l 304 126 q 304 136 314 136 l 333 136 q 343 136 343 126 l 343 121 q 343 87 325 58 q 307 28 274 10 q 242 -8 200 -8 q 137 -8 98 33 q 58 74 58 139 z"},"!":{"x_min":0,"x_max":239,"ha":239,"o":"m 104 233 l 101 690 q 101 700 111 700 l 130 700 q 140 700 140 690 l 138 233 q 138 223 128 223 l 114 223 q 104 223 104 233 z m 74 50 q 74 70 87 83 q 100 96 119 96 q 139 96 152 83 q 165 70 165 50 q 165 30 152 17 q 139 4 119 4 q 100 4 87 17 q 74 30 74 50 z"},"/":{"x_min":0,"x_max":297,"ha":297,"o":"m 29 11 l 191 691 q 193 700 202 700 l 221 700 q 226 700 228 697 q 231 694 229 689 l 67 9 q 65 0 56 0 l 37 0 q 32 0 30 3 q 27 6 29 11 z"},"[":{"x_min":0,"x_max":283,"ha":283,"o":"m 25 -99 l 25 752 q 25 762 35 762 l 166 762 q 176 762 176 752 l 176 737 q 176 727 166 727 l 68 727 q 64 727 64 723 l 64 -70 q 64 -74 68 -74 l 167 -74 q 177 -74 177 -84 l 177 -99 q 177 -109 167 -109 l 35 -109 q 25 -109 25 -99 z"},"6":{"x_min":0,"x_max":396,"ha":396,"o":"m 353 211 q 353 160 347 131 q 337 62 302 27 q 266 -8 208 -8 q 153 -8 118 24 q 83 57 71 121 q 63 161 63 210 l 63 540 q 63 616 103 662 q 143 708 208 708 q 267 708 305 662 q 343 615 343 540 l 343 533 q 343 523 333 523 l 314 523 q 304 523 304 533 l 304 542 q 304 599 276 636 q 249 672 208 672 q 161 672 132 636 q 102 600 102 542 l 102 373 q 102 370 104 370 q 105 370 106 372 q 122 402 149 417 q 176 432 209 432 q 261 432 295 402 q 329 371 343 314 q 353 274 353 211 z m 314 213 q 314 271 304 311 q 281 397 208 397 q 132 397 111 305 q 102 265 102 213 q 102 172 109 128 q 130 27 208 27 q 289 27 309 135 q 314 173 314 213 z"},"r":{"x_min":0,"x_max":278,"ha":278,"o":"m 258 496 q 265 492 262 483 l 256 463 q 253 454 243 458 q 229 464 207 463 q 165 463 138 422 q 110 381 110 320 l 110 10 q 110 0 100 0 l 81 0 q 71 0 71 10 l 71 492 q 71 502 81 502 l 100 502 q 110 502 110 492 l 110 427 q 110 424 112 424 q 114 424 115 427 q 130 464 155 485 q 180 506 215 506 q 240 506 258 496 z"},"2":{"x_min":0,"x_max":385,"ha":385,"o":"m 98 35 l 342 35 q 352 35 352 25 l 352 10 q 352 0 342 0 l 56 0 q 46 0 46 10 l 46 28 q 46 35 49 41 l 113 151 q 138 195 165 242 q 192 289 221 340 q 289 462 289 540 q 289 600 260 636 q 232 673 185 673 q 139 673 112 636 q 85 600 86 541 l 86 505 q 86 495 76 495 l 55 495 q 45 495 45 505 l 45 542 q 46 616 85 662 q 124 708 186 708 q 250 708 290 662 q 329 615 329 540 q 329 450 257 322 l 173 174 l 96 40 q 93 35 98 35 z"},"{":{"x_min":0,"x_max":240,"ha":240,"o":"m 81 0 l 81 222 q 81 264 70 286 q 58 307 34 312 q 25 314 25 322 l 25 338 q 25 347 34 348 q 58 354 70 376 q 81 397 81 438 l 81 653 q 81 711 102 736 q 123 762 170 762 l 206 762 q 216 762 216 752 l 216 737 q 216 727 206 727 l 177 727 q 147 727 134 708 q 120 690 120 648 l 120 440 q 120 395 110 370 q 99 344 76 333 q 71 331 76 328 q 99 315 110 290 q 120 264 120 220 l 120 5 q 120 -37 134 -56 q 147 -74 177 -74 l 206 -74 q 216 -74 216 -84 l 216 -99 q 216 -109 206 -109 l 170 -109 q 123 -109 102 -84 q 81 -58 81 0 z"},"9":{"x_min":0,"x_max":389,"ha":389,"o":"m 326 490 l 326 160 q 326 84 286 38 q 246 -8 180 -8 q 121 -8 84 38 q 46 84 46 160 l 46 167 q 46 177 56 177 l 75 177 q 85 177 85 167 l 85 158 q 85 100 112 64 q 140 28 180 28 q 228 28 258 64 q 287 100 287 158 l 287 328 q 287 331 286 331 q 284 331 282 329 q 267 299 240 284 q 213 268 179 268 q 127 268 94 298 q 60 329 46 386 q 35 430 35 489 q 35 533 41 569 q 51 638 87 673 q 123 708 181 708 q 236 708 270 676 q 305 643 317 579 q 326 542 326 490 z m 278 395 q 287 436 287 487 q 287 528 280 572 q 259 673 181 673 q 140 673 114 646 q 89 618 80 565 q 74 531 74 487 q 74 433 85 389 q 108 303 181 303 q 255 303 278 395 z"}," ":{"x_min":0,"x_max":200,"ha":200,"o":""},"I":{"x_min":0,"x_max":208,"ha":208,"o":"m 84 10 l 84 690 q 84 700 94 700 l 113 700 q 123 700 123 690 l 123 10 q 123 0 113 0 l 94 0 q 84 0 84 10 z"},"H":{"x_min":0,"x_max":468,"ha":468,"o":"m 355 700 l 374 700 q 384 700 384 690 l 384 10 q 384 0 374 0 l 355 0 q 345 0 345 10 l 345 329 q 345 333 341 333 l 127 333 q 123 333 123 329 l 123 10 q 123 0 113 0 l 94 0 q 84 0 84 10 l 84 690 q 84 700 94 700 l 113 700 q 123 700 123 690 l 123 372 q 123 368 127 368 l 341 368 q 345 368 345 372 l 345 690 q 345 700 355 700 z"},"4":{"x_min":0,"x_max":384,"ha":384,"o":"m 358 224 l 358 208 q 358 198 348 198 l 319 198 q 315 198 315 194 l 315 10 q 315 0 305 0 l 286 0 q 276 0 276 10 l 276 194 q 276 198 272 198 l 36 198 q 26 198 26 208 l 26 224 q 26 228 28 236 l 185 692 q 188 700 197 700 l 218 700 q 229 700 226 689 l 72 239 q 71 237 72 236 q 73 234 75 234 l 272 234 q 276 234 276 238 l 276 412 q 276 422 286 422 l 305 422 q 315 422 315 412 l 315 238 q 315 234 319 234 l 348 234 q 358 234 358 224 z"},"~":{"x_min":0,"x_max":448,"ha":448,"o":"m 213 282 q 194 293 178 300 q 161 306 142 306 q 116 306 98 296 q 80 285 66 264 q 64 260 60 259 q 56 258 52 260 l 44 266 q 36 272 40 279 q 55 309 80 326 q 105 342 140 342 q 164 342 182 336 q 201 329 222 316 q 250 299 270 290 q 289 282 316 282 q 337 282 350 292 q 364 302 381 322 q 388 331 395 325 l 404 319 q 412 313 407 305 q 388 277 367 262 q 346 246 316 246 q 287 246 268 254 q 248 262 213 282 z"},"D":{"x_min":0,"x_max":461,"ha":461,"o":"m 84 10 l 84 690 q 84 700 94 700 l 235 700 q 306 700 348 652 q 389 603 389 518 l 389 182 q 389 97 348 48 q 306 0 235 0 l 94 0 q 84 0 84 10 z m 127 35 l 236 35 q 288 36 318 75 q 349 114 349 182 l 349 517 q 349 586 319 626 q 289 665 236 665 l 127 665 q 123 665 123 661 l 123 39 q 123 35 127 35 z"},"^":{"x_min":0,"x_max":384,"ha":384,"o":"m 40 323 l 170 692 q 173 700 182 700 l 202 700 q 211 700 214 692 l 344 323 l 345 319 q 345 312 336 312 l 322 312 q 313 312 310 320 l 195 652 q 194 654 192 654 q 190 654 189 652 l 75 320 q 72 312 63 312 l 48 312 q 37 312 40 323 z"},"0":{"x_min":0,"x_max":440,"ha":440,"o":"m 62 159 l 62 541 q 62 617 105 663 q 148 709 219 709 q 290 709 334 663 q 378 617 378 541 l 378 159 q 378 83 334 37 q 290 -9 219 -9 q 148 -9 105 37 q 62 83 62 159 z m 339 156 l 339 544 q 339 603 306 638 q 274 674 219 674 q 166 674 134 638 q 101 603 101 544 l 101 156 q 101 97 134 62 q 166 26 219 26 q 274 26 306 62 q 339 97 339 156 z"},"F":{"x_min":0,"x_max":396,"ha":396,"o":"m 367 665 l 127 665 q 123 665 123 661 l 123 372 q 123 368 127 368 l 284 368 q 294 368 294 358 l 294 343 q 294 333 284 333 l 127 333 q 123 333 123 329 l 123 10 q 123 0 113 0 l 94 0 q 84 0 84 10 l 84 690 q 84 700 94 700 l 367 700 q 377 700 377 690 l 377 675 q 377 665 367 665 z"},"`":{"x_min":0,"x_max":163,"ha":163,"o":""},"k":{"x_min":0,"x_max":385,"ha":385,"o":"m 71 10 l 71 690 q 71 700 81 700 l 100 700 q 110 700 110 690 l 110 256 q 110 254 112 254 q 114 253 115 255 l 292 496 q 296 502 305 502 l 325 502 q 331 502 333 498 q 335 495 331 490 l 236 360 q 234 357 235 355 l 351 11 l 352 7 q 352 0 343 0 l 323 0 q 314 0 311 8 l 211 321 q 210 327 205 322 l 112 195 q 110 193 110 190 l 110 10 q 110 0 100 0 l 81 0 q 71 0 71 10 z"},"u":{"x_min":0,"x_max":413,"ha":413,"o":"m 313 502 l 332 502 q 342 502 342 492 l 342 10 q 342 0 332 0 l 313 0 q 303 0 303 10 l 303 50 q 303 53 301 54 q 299 54 298 51 q 267 -7 194 -7 q 134 -7 100 30 q 65 67 65 139 l 65 492 q 65 502 75 502 l 94 502 q 104 502 104 492 l 104 147 q 104 89 130 58 q 155 28 201 28 q 248 28 276 62 q 303 97 303 157 l 303 492 q 303 502 313 502 z"},"]":{"x_min":0,"x_max":283,"ha":283,"o":"m 249 -109 l 116 -109 q 106 -109 106 -99 l 106 -84 q 106 -74 116 -74 l 216 -74 q 220 -74 220 -70 l 220 723 q 220 727 216 727 l 117 727 q 107 727 107 737 l 107 752 q 107 762 117 762 l 249 762 q 259 762 259 752 l 259 -99 q 259 -109 249 -109 z"},"U":{"x_min":0,"x_max":475,"ha":475,"o":"m 78 178 l 78 690 q 78 700 88 700 l 107 700 q 117 700 117 690 l 117 174 q 117 108 150 68 q 183 27 237 27 q 291 27 324 68 q 358 108 358 174 l 358 690 q 358 700 368 700 l 387 700 q 397 700 397 690 l 397 178 q 397 94 352 43 q 308 -8 237 -8 q 165 -8 122 43 q 78 94 78 178 z"},"o":{"x_min":0,"x_max":402,"ha":402,"o":"m 58 139 l 58 363 q 58 428 98 469 q 137 510 200 510 q 264 510 304 469 q 343 428 343 363 l 343 139 q 343 74 304 33 q 264 -8 200 -8 q 137 -8 98 33 q 58 74 58 139 z m 304 140 l 304 362 q 304 412 275 444 q 246 475 200 475 q 155 475 126 443 q 97 411 97 362 l 97 140 q 97 91 126 59 q 155 27 200 27 q 246 27 275 58 q 304 90 304 140 z"},"N":{"x_min":0,"x_max":484,"ha":484,"o":"m 371 700 l 390 700 q 400 700 400 690 l 400 10 q 400 0 390 0 l 366 0 q 358 0 355 8 l 128 600 q 127 603 125 602 q 123 602 123 599 l 123 10 q 123 0 113 0 l 94 0 q 84 0 84 10 l 84 690 q 84 700 94 700 l 117 700 q 125 700 128 692 l 356 103 q 357 100 359 100 q 361 101 361 104 l 361 690 q 361 700 371 700 z"},"+":{"x_min":0,"x_max":443,"ha":443,"o":"m 407 328 l 407 316 q 407 306 397 306 l 242 306 q 238 306 238 302 l 238 147 q 238 137 228 137 l 215 137 q 205 137 205 147 l 205 302 q 205 306 201 306 l 46 306 q 36 306 36 316 l 36 328 q 36 338 46 338 l 201 338 q 205 338 205 342 l 205 498 q 205 508 215 508 l 228 508 q 238 508 238 498 l 238 342 q 238 338 242 338 l 397 338 q 407 338 407 328 z"},"G":{"x_min":0,"x_max":443,"ha":443,"o":"m 65 149 l 65 551 q 65 622 108 665 q 151 708 221 708 q 292 708 335 665 q 378 622 378 551 l 378 505 q 378 495 368 495 l 349 495 q 339 495 339 505 l 339 552 q 339 606 306 640 q 274 673 221 673 q 169 673 136 640 q 104 606 104 552 l 104 148 q 104 94 136 60 q 169 27 221 27 q 274 27 306 60 q 339 94 339 148 l 339 300 q 339 304 335 304 l 235 304 q 225 304 225 314 l 225 329 q 225 339 235 339 l 368 339 q 378 339 378 329 l 378 149 q 378 78 335 35 q 292 -8 221 -8 q 151 -8 108 35 q 65 78 65 149 z"},"q":{"x_min":0,"x_max":419,"ha":419,"o":"m 312 502 l 331 502 q 341 502 341 492 l 341 -188 q 341 -198 331 -198 l 312 -198 q 302 -198 302 -188 l 302 44 q 302 47 300 48 q 299 48 297 46 q 280 20 253 6 q 226 -8 194 -8 q 133 -8 96 33 q 58 74 58 139 l 58 364 q 58 428 96 469 q 133 510 194 510 q 226 510 253 496 q 280 482 297 456 q 299 454 300 454 q 302 455 302 458 l 302 492 q 302 502 312 502 z m 302 140 l 302 362 q 302 412 274 444 q 246 475 202 475 q 155 475 126 444 q 97 412 97 362 l 97 140 q 97 90 126 58 q 156 27 202 27 q 246 27 274 58 q 302 90 302 140 z"},"d":{"x_min":0,"x_max":412,"ha":412,"o":"m 312 700 l 331 700 q 341 700 341 690 l 341 10 q 341 0 331 0 l 312 0 q 302 0 302 10 l 302 44 q 302 47 300 48 q 299 48 297 46 q 280 20 253 6 q 226 -8 194 -8 q 133 -8 96 33 q 58 74 58 138 l 58 363 q 58 428 96 469 q 133 510 194 510 q 226 510 253 496 q 280 482 297 456 q 299 454 300 454 q 302 455 302 458 l 302 690 q 302 700 312 700 z m 302 140 l 302 362 q 302 412 274 444 q 246 475 202 475 q 155 475 126 444 q 97 412 97 362 l 97 140 q 97 90 126 58 q 155 27 202 27 q 246 27 274 58 q 302 90 302 140 z"},"1":{"x_min":0,"x_max":243,"ha":243,"o":"m 141 700 l 163 700 q 173 700 173 690 l 173 10 q 173 0 163 0 l 144 0 q 134 0 134 10 l 134 646 q 134 648 132 649 q 131 650 129 649 l 30 604 q 28 603 25 603 q 22 603 20 605 q 18 607 17 610 l 13 624 q 12 625 12 628 q 12 634 18 637 l 128 697 q 134 700 141 700 z"},"5":{"x_min":0,"x_max":395,"ha":395,"o":"m 353 211 q 353 160 344 119 q 332 57 297 24 q 262 -8 207 -8 q 149 -8 114 25 q 78 58 68 124 l 64 154 l 64 156 q 64 164 73 164 l 92 164 q 102 164 103 154 q 105 136 107 126 q 125 27 207 27 q 282 27 305 120 q 314 159 314 211 q 314 269 301 314 q 278 394 207 394 q 124 394 104 311 q 101 302 93 302 l 73 302 q 63 302 63 312 l 63 690 q 63 700 73 700 l 322 700 q 332 700 332 690 l 332 675 q 332 665 322 665 l 106 665 q 102 665 102 661 l 101 376 q 101 373 102 373 q 104 373 106 375 q 122 402 150 416 q 177 430 214 430 q 261 430 293 403 q 325 376 339 323 q 353 276 353 211 z"}}}
